<svg xmlns="http://www.w3.org/2000/svg" viewBox="0 0 89 89"><defs><clipPath id="a"><circle cx="44.5" cy="44.5" r="44.5" fill="none"/></clipPath></defs><path fill="none" d="M0 0h89v89H0z"/><g clip-path="url(#a)"><path d="M68.5 81.2C58 77.3 56.3 74.1 56.3 68a4.45 4.45 0 0 1 1-3.1 16.69 16.69 0 0 0 2.8-7.5c0-.7.2-.7.8-1 1.5-.7 2.9-1.8 3.3-6.8a5.57 5.57 0 0 0-1.5-4.3c.5-3 1.8-14.3-2.5-19.2a11.39 11.39 0 0 0-8.1-3.7c-2.2-2.3-9.1-4.2-17.8-.7-9.9 4-9.9 12.7-8.7 19.7.2 1.6.5 3 .6 3.9a6.3 6.3 0 0 0-1.4 4.4c.4 4.9 1.8 5.9 3.3 6.7.6.3.7.3.8 1a17.14 17.14 0 0 0 2.8 7.5 4.45 4.45 0 0 1 1 3.1c0 6.1-1.7 9.2-12.2 13.1a1.19 1.19 0 0 0-.8 1 1.3 1.3 0 0 0 .5 1.3c.6.3 3-.4 3.5-.6 8.9-3.8 11.5-7.4 11.5-14.7a6.71 6.71 0 0 0-1.4-4.5 14 14 0 0 1-2.5-6.5 3.54 3.54 0 0 0-2.2-2.8c-.8-.4-1.6-.8-1.9-4.5 0-2 .9-2.5.9-2.5a1.27 1.27 0 0 0 .7-1.4s-.4-2.1-.7-4.5c-1-6.7-1-13.8 7.2-17.1s14.3-1 15 .2a2.59 2.59 0 0 0 1.1.7h.3a9 9 0 0 1 6.7 2.7c3.4 4 2.4 14.5 1.7 17.8a1.42 1.42 0 0 0 .7 1.4 2.92 2.92 0 0 1 .9 2.5c-.3 3.8-1.1 4.2-1.9 4.6a3.54 3.54 0 0 0-2.2 2.8 15.21 15.21 0 0 1-2.5 6.5 6.71 6.71 0 0 0-1.4 4.5c0 7.2 2.7 10.8 11.1 14.4 1.8.9 3.4 1.2 4 .8a1 1 0 0 0 .5-1 1.21 1.21 0 0 0-.8-1z" fill="#cbc9c9"/></g></svg>